<?xml version="1.0" encoding="utf-8"?>
<!-- Generator: Adobe Illustrator 22.1.0, SVG Export Plug-In . SVG Version: 6.00 Build 0)  -->
<svg version="1.1" id="Layer_1" xmlns="http://www.w3.org/2000/svg" xmlns:xlink="http://www.w3.org/1999/xlink" x="0px" y="0px"
	 viewBox="0 0 141.7 141.7" style="enable-background:new 0 0 141.7 141.7;" xml:space="preserve">
<style type="text/css">
	.st0{display:none;}
	.st1{display:inline;fill:#FAA21B;}
	.st2{display:inline;fill:#4E66A7;}
	.st3{display:inline;fill:#E6E6E5;}
	.st4{display:inline;fill:#4C65A8;}
	.st5{display:inline;}
	.st6{fill:none;}
	.st7{fill:#324C85;}
	.st8{fill:#FFFFFF;}
	.st9{fill:#F68C1F;}
	.st10{fill:#FAA21B;}
	.st11{display:inline;fill:#C1CEDB;}
	.st12{display:inline;fill:#4A617B;}
	.st13{display:inline;fill:#6081A3;}
	.st14{display:inline;fill:#F9A987;}
	.st15{fill:#F15A22;}
	.st16{fill:#4A617B;}
	.st17{fill:#F15822;}
	.st18{display:inline;opacity:0.44;}
	.st19{fill:#DCE4ED;}
	.st20{fill:#F47A3A;}
	.st21{fill:#F15E22;}
	.st22{fill:#9DB4CB;}
	.st23{fill:#B9CCE0;}
	.st24{display:inline;fill:#EAF2FF;}
	.st25{fill:#0482FC;}
	.st26{fill:#A9CCFD;}
	.st27{fill:#FFBE55;}
	.st28{fill:#FFFDFF;}
	.st29{fill:#4494F4;}
	.st30{fill:#FDFDFD;}
	.st31{opacity:0.43;}
	.st32{fill:#E1EBF9;}
	.st33{fill:#00D3B9;}
	.st34{display:inline;fill:#606060;}
	.st35{fill:#FFAF1C;}
	.st36{fill:#FFD7A0;}
	.st37{fill:#FFD98D;}
	.st38{opacity:0.52;}
	.st39{display:inline;fill:#4494F4;}
	.st40{display:inline;fill:#FFBE55;}
	.st41{fill:url(#SVGID_1_);}
	.st42{opacity:0.1;fill:#0000CC;enable-background:new    ;}
	.st43{fill:#4D4DFF;}
	.st44{fill:#8383FF;}
	.st45{fill:#FFAB66;}
	.st46{fill:#FF9D33;}
	.st47{fill:#FFE8DC;}
	.st48{fill:#FF8B00;}
	.st49{fill:#FF4D4D;}
	.st50{fill:#FFC599;}
</style>
<g class="st0">
	<rect x="96" y="28.1" class="st1" width="9.7" height="9.7"/>
	<rect x="118.1" y="31.2" class="st2" width="6.7" height="6.7"/>
	<rect x="117.1" y="48.9" class="st2" width="5.9" height="5.9"/>
	<rect x="92.4" y="47.5" class="st2" width="13.3" height="13.3"/>
	<rect x="107.4" y="37.9" class="st1" width="9.6" height="9.6"/>
	<ellipse class="st3" cx="70.9" cy="106.7" rx="70.9" ry="10.9"/>
	<path class="st4" d="M92.4,106.5l-12.5,2.2c0,0-4.5,0.9-11.7,0s-46.7-5.1-46.7-5.1l70.9-8.8l2.8,0.2l37.7,5.4l-18.8,2.6l-14.2-1.7
		c0,0-1.1-0.2-3.9,0.1c-2.8,0.3-14.3,2.6-14.3,2.6s-2.4,0.4,1.5,1.2C87.1,106.1,92.4,106.5,92.4,106.5z"/>
	<g class="st5">
		<polygon class="st6" points="21.4,91.7 17,48.7 5.2,48.7 20.5,96.8 29.7,95.6 21.9,96.5 		"/>
		<polygon class="st6" points="22.8,95.3 82,89 88.5,88.1 88.5,47.3 88.5,31.5 15.6,25.2 17.5,43.3 20.6,43.3 21.2,48.7 18,48.7 
			22.4,91.6 		"/>
		<path class="st7" d="M129.7,100.7c-2.8,0.6-48.1,9.7-48.1,9.7s-3.5,1.3-10.1,0.4s-48.1-6.9-48.1-6.9L95.2,95l-5.7-22v16.2
			l-59.9,6.5l-9.2,1.2L5.2,48.7H17l-0.6-5.4h-12c0,0-5.6-0.1-4,5.4s16.4,52.4,16.4,52.4s0.9,5.8,8.3,6.7c7.4,0.9,44.5,6.1,44.5,6.1
			s4.6,1.1,15.1-0.9c10.4-2,46.5-9.5,46.5-9.5s2.2-0.4,2.2-1.9C133.5,100.2,132.5,100.2,129.7,100.7z"/>
		<polygon class="st8" points="18,48.7 17.5,43.3 16.5,43.3 17,48.7 		"/>
	</g>
	<g class="st5">
		<path class="st9" d="M22.8,95.3l65.7-7.1V48.7c-7.1,23.2-33.4,39.6-66.2,42.4l0.1,0.5L22.8,95.3z"/>
		<path class="st10" d="M88.5,48.7v-1.3V31.5l-72.9-6.3l6.7,65.9C55.1,88.2,81.5,71.8,88.5,48.7z"/>
	</g>
	<g class="st5">
		<path class="st8" d="M78.7,35.7l3.2,3.3l-3.7,6.5c0,0-0.8,2.1-5.5,4.4c-4.7,2.3-6.9,6.2-19.4,19V71c0,0,0,1.3-1.9,3.2
			C49.6,76.2,41,86.8,41,86.8s-3,4-6.6,2.4c-3.5-1.6-5.6-4.2-5.6-6.7c0.1-2.5,3.4-4.8,3.4-4.8L44.3,67c0,0,2.4-2,5.6-1.3l15.6-16.2
			c0,0,2.4-2.8,3.5-5.7c1-2.9,2.4-3.6,4.4-4.7C75.3,37.9,78.7,35.7,78.7,35.7z"/>
		<path class="st8" d="M33.3,35l7.8,7.7L39.9,48l-5.6,1.4L26,42.2c0,0-2.9,15.7,15.1,13.6l8,6.8l6.2-6.5l-7.2-6.8
			C48.2,49.3,51.4,33.2,33.3,35z"/>
		<path class="st8" d="M62.2,62.2L56,68.9l17.7,15.8c0,0,4,3.9,6.9,0.4S79,77.9,79,77.9L62.2,62.2z"/>
	</g>
</g>
<g class="st0">
	<circle class="st11" cx="93.7" cy="17.8" r="16.8"/>
	<path class="st12" d="M101.8,106H27.4c-6.6,0-12-5.4-12-12V43.7c0-6.6,5.4-12,12-12h74.4c6.6,0,12,5.4,12,12V94
		C113.8,100.6,108.4,106,101.8,106z"/>
	<path class="st13" d="M106,91.7H23.9c-1.5,0-2.7-1.2-2.7-2.7V40.1c0-1.5,1.2-2.7,2.7-2.7H106c1.5,0,2.7,1.2,2.7,2.7V89
		C108.8,90.5,107.5,91.7,106,91.7z"/>
	<polygon class="st14" points="66.6,15.3 72.5,21.5 52.4,21.5 51.5,15.3 	"/>
	<g class="st5">
		<polygon class="st15" points="97.6,19.4 64.6,19.5 60.6,15.3 35.7,15.3 31.5,19.4 31.5,24.2 97.6,23.8 		"/>
		<polygon class="st8" points="31.5,24.2 31.5,91.7 97.6,91.7 97.6,23.8 		"/>
	</g>
	<g class="st5">
		<g>
			<path class="st16" d="M55.5,47.3H45.1V36.9h10.4V47.3z M46.9,45.5h6.9v-6.9h-6.9V45.5z"/>
		</g>
		<rect x="60.5" y="38.6" class="st16" width="12" height="2"/>
		<rect x="71.1" y="43.3" class="st16" width="14.5" height="2"/>
		<rect x="60.5" y="43.3" class="st16" width="8.4" height="2"/>
		<rect x="75.1" y="38.6" class="st16" width="10.4" height="2"/>
	</g>
	<g class="st5">
		<rect x="60.5" y="55.5" class="st16" width="12" height="2"/>
		<rect x="71.1" y="60.1" class="st16" width="14.5" height="2"/>
		<rect x="60.5" y="60.1" class="st16" width="8.4" height="2"/>
		<rect x="75.1" y="55.5" class="st16" width="10.4" height="2"/>
	</g>
	<g class="st5">
		<g>
			<path class="st16" d="M55.5,80.9H45.1V70.5h10.4V80.9z M46.9,79.1h6.9v-6.9h-6.9V79.1z"/>
		</g>
		<rect x="60.5" y="72.3" class="st16" width="12" height="2"/>
		<rect x="71.1" y="76.9" class="st16" width="14.5" height="2"/>
		<rect x="60.5" y="76.9" class="st16" width="8.4" height="2"/>
		<rect x="75.1" y="72.3" class="st16" width="10.4" height="2"/>
	</g>
	<g class="st5">
		<path class="st17" d="M48.3,62.6c-0.2,0-0.4-0.1-0.6-0.2l-3.1-3c-0.3-0.3-0.4-0.9,0-1.2c0.3-0.3,0.9-0.4,1.2,0l2.6,2.4l6.2-5.7
			c0.4-0.3,0.9-0.3,1.2,0.1c0.3,0.4,0.3,0.9-0.1,1.2l-6.8,6.2C48.7,62.5,48.5,62.6,48.3,62.6z"/>
	</g>
	<g class="st18">
		
			<image style="overflow:visible;enable-background:new    ;" width="404" height="413" xlink:href="8B76D2D589A470F5.png"  transform="matrix(0.2377 0 0 0.2377 53.6295 16.32)">
		</image>
	</g>
	<g class="st5">
		<polygon points="88.9,75.1 92.2,73.9 89.9,71.8 		"/>
		<polygon class="st19" points="91.6,66.5 89.9,71.8 92.2,73.9 97.4,72.1 		"/>
		<g>
			<polygon class="st20" points="120.7,37.3 91.6,66.5 91.6,66.5 94.6,69.4 123.7,40.4 			"/>
			<polygon class="st21" points="123.7,40.4 94.6,69.4 97.4,72.1 97.6,72 126.3,43 			"/>
		</g>
	</g>
	<rect x="55.9" y="97" class="st13" width="17.3" height="2.2"/>
	<g class="st5">
		<path class="st22" d="M73.3,104.2H55.5c0,0-3,3.1-5.9,6.2H79L73.3,104.2z"/>
		<path class="st23" d="M49.6,110.3c-2.9,3.1-5.7,6.2-5.3,6.2c0.9,0,40.4,0,40.4,0l-5.7-6.2H49.6z"/>
	</g>
	<rect x="40.1" y="115.6" class="st12" width="49.3" height="2"/>
</g>
<g class="st0">
	<path class="st24" d="M117,12.4c0,0,16.9,8.9,14.6,29.5s-20.4,60.2-68,74.1C16.2,129.7-13.7,55,38.2,19.1
		C82.7-7.5,117,12.4,117,12.4z"/>
	<g class="st5">
		<path d="M61.4,107.4c-0.7,0-1.3-0.2-1.9-0.6c-0.8-0.5-1.4-1.3-1.6-2.3L43.2,41C43,40,43.1,39,43.7,38.2c0.5-0.8,1.3-1.4,2.3-1.6
			l48.2-11.1c2-0.5,3.9,0.8,4.4,2.7l14.7,63.6c0.2,0.9,0.1,1.9-0.5,2.8c-0.5,0.8-1.3,1.4-2.3,1.6l-48.2,11.1
			C62,107.3,61.7,107.4,61.4,107.4z M95,26.1c-0.2,0-0.4,0-0.7,0.1L46.1,37.3c-0.8,0.2-1.4,0.6-1.8,1.3c-0.4,0.7-0.6,1.5-0.4,2.2
			l14.7,63.6c0.2,0.8,0.6,1.4,1.3,1.8c0.7,0.4,1.5,0.5,2.2,0.4l48.2-11.1c0.8-0.2,1.4-0.6,1.8-1.3c0.4-0.7,0.6-1.5,0.4-2.2
			L97.8,28.3C97.5,27,96.3,26.1,95,26.1z"/>
	</g>
	<g class="st5">
		<path class="st25" d="M98.2,101.5l-39.7,1.6c-4.4,0.2-8.1-3.3-8.2-7.6l-2.2-55.7c-0.2-4.4,3.3-8.1,7.6-8.2l39.7-1.6
			c4.4-0.2,8.1,3.3,8.2,7.6l2.2,55.7C106,97.6,102.6,101.3,98.2,101.5z"/>
		<path class="st26" d="M98.2,96.2H57.9c-0.8,0-1.4-0.6-1.4-1.4v-0.2c0-0.8,0.6-1.4,1.4-1.4h40.3c0.8,0,1.4,0.6,1.4,1.4v0.2
			C99.7,95.6,99,96.2,98.2,96.2z"/>
		<path class="st26" d="M97.9,88.5H57.6c-0.8,0-1.4-0.6-1.4-1.4v-0.2c0-0.8,0.6-1.4,1.4-1.4h40.3c0.8,0,1.4,0.6,1.4,1.4v0.2
			C99.4,87.9,98.7,88.5,97.9,88.5z"/>
		<g>
			<path class="st26" d="M95.2,81.2c-0.3,0-0.5-0.2-0.5-0.5s0.2-0.5,0.5-0.5h1.4c0.3,0,0.5,0.2,0.5,0.5c0,0.3-0.2,0.5-0.5,0.5v-0.5
				l0,0.5L95.2,81.2z M93.8,81.2h-1.4c-0.3,0-0.5-0.2-0.5-0.5s0.2-0.5,0.5-0.5h1.4c0.3,0,0.5,0.2,0.5,0.5S94.1,81.2,93.8,81.2z
				 M90.9,81.2h-1.4c-0.3,0-0.5-0.2-0.5-0.5s0.2-0.5,0.5-0.5h1.4c0.3,0,0.5,0.2,0.5,0.5S91.2,81.2,90.9,81.2z M88,81.2h-1.4
				c-0.3,0-0.5-0.2-0.5-0.5s0.2-0.5,0.5-0.5H88c0.3,0,0.5,0.2,0.5,0.5S88.3,81.2,88,81.2z M85.2,81.2h-1.4c-0.3,0-0.5-0.2-0.5-0.5
				s0.2-0.5,0.5-0.5h1.4c0.3,0,0.5,0.2,0.5,0.5S85.5,81.2,85.2,81.2z M82.3,81.2h-1.4c-0.3,0-0.5-0.2-0.5-0.5s0.2-0.5,0.5-0.5h1.4
				c0.3,0,0.5,0.2,0.5,0.5S82.6,81.2,82.3,81.2z M79.4,81.2H78c-0.3,0-0.5-0.2-0.5-0.5s0.2-0.5,0.5-0.5h1.4c0.3,0,0.5,0.2,0.5,0.5
				S79.7,81.2,79.4,81.2z M76.5,81.2h-1.4c-0.3,0-0.5-0.2-0.5-0.5s0.2-0.5,0.5-0.5h1.4c0.3,0,0.5,0.2,0.5,0.5S76.8,81.2,76.5,81.2z
				 M73.7,81.2h-1.4c-0.3,0-0.5-0.2-0.5-0.5s0.2-0.5,0.5-0.5h1.4c0.3,0,0.5,0.2,0.5,0.5S74,81.2,73.7,81.2z M70.8,81.2h-1.4
				c-0.3,0-0.5-0.2-0.5-0.5s0.2-0.5,0.5-0.5h1.4c0.3,0,0.5,0.2,0.5,0.5S71.1,81.2,70.8,81.2z M67.9,81.2h-1.4
				c-0.3,0-0.5-0.2-0.5-0.5s0.2-0.5,0.5-0.5h1.4c0.3,0,0.5,0.2,0.5,0.5S68.2,81.2,67.9,81.2z M65,81.2h-1.4c-0.3,0-0.5-0.2-0.5-0.5
				s0.2-0.5,0.5-0.5H65c0.3,0,0.5,0.2,0.5,0.5S65.3,81.2,65,81.2z M62.2,81.2h-1.4c-0.3,0-0.5-0.2-0.5-0.5s0.2-0.5,0.5-0.5h1.4
				c0.3,0,0.5,0.2,0.5,0.5S62.5,81.2,62.2,81.2z M59.3,81.2h-1.4c-0.3,0-0.5-0.2-0.5-0.5s0.2-0.5,0.5-0.5h1.4c0.3,0,0.5,0.2,0.5,0.5
				S59.6,81.2,59.3,81.2z M56.4,81.2C56.4,81.2,56.4,81.2,56.4,81.2c-0.7-0.1-1.3-0.4-1.6-1c-0.2-0.3-0.1-0.6,0.2-0.7
				c0.3-0.2,0.6-0.1,0.7,0.2c0.2,0.3,0.4,0.5,0.8,0.5c0.3,0,0.5,0.3,0.5,0.6C56.9,81,56.7,81.2,56.4,81.2z M97.9,80.6
				c-0.1,0-0.2,0-0.3-0.1c-0.2-0.2-0.3-0.5-0.1-0.7c0.1-0.2,0.2-0.4,0.2-0.6v-0.5c0-0.3,0.2-0.5,0.5-0.5s0.5,0.2,0.5,0.5v0.5
				c0,0.4-0.1,0.8-0.4,1.2C98.2,80.5,98.1,80.6,97.9,80.6z M55,79c-0.3,0-0.5-0.2-0.5-0.5v-1.4c0-0.3,0.2-0.5,0.5-0.5
				s0.5,0.2,0.5,0.5v1.4C55.6,78.8,55.3,79,55,79z M98.2,77.7c-0.3,0-0.5-0.2-0.5-0.5v-1.4c0-0.3,0.2-0.5,0.5-0.5s0.5,0.2,0.5,0.5
				v1.4C98.7,77.5,98.5,77.7,98.2,77.7z M55,76.2c-0.3,0-0.5-0.2-0.5-0.5v-1.4c0-0.3,0.2-0.5,0.5-0.5s0.5,0.2,0.5,0.5v1.4
				C55.6,75.9,55.3,76.2,55,76.2z M98.2,74.9c-0.3,0-0.5-0.2-0.5-0.5v-1.4c0-0.3,0.2-0.5,0.5-0.5s0.5,0.2,0.5,0.5v1.4
				C98.7,74.6,98.5,74.9,98.2,74.9z M55,73.3c-0.3,0-0.5-0.2-0.5-0.5v-0.5c0-0.4,0.1-0.9,0.4-1.2c0.2-0.2,0.5-0.3,0.7-0.1
				c0.2,0.2,0.3,0.5,0.1,0.7c-0.1,0.2-0.2,0.4-0.2,0.6v0.5C55.6,73.1,55.3,73.3,55,73.3z M98,72c-0.2,0-0.4-0.1-0.5-0.3
				c-0.2-0.3-0.5-0.5-0.8-0.5c-0.3,0-0.5-0.3-0.5-0.6c0-0.3,0.3-0.5,0.6-0.5c0.6,0.1,1.2,0.4,1.6,1c0.2,0.3,0.1,0.6-0.2,0.7
				C98.2,72,98.1,72,98,72z M95.4,71.3h-1.4c-0.3,0-0.5-0.2-0.5-0.5s0.2-0.5,0.5-0.5h1.4c0.3,0,0.5,0.2,0.5,0.5S95.7,71.3,95.4,71.3
				z M92.5,71.3h-1.4c-0.3,0-0.5-0.2-0.5-0.5s0.2-0.5,0.5-0.5h1.4c0.3,0,0.5,0.2,0.5,0.5S92.8,71.3,92.5,71.3z M89.6,71.3h-1.4
				c-0.3,0-0.5-0.2-0.5-0.5s0.2-0.5,0.5-0.5h1.4c0.3,0,0.5,0.2,0.5,0.5S89.9,71.3,89.6,71.3z M86.8,71.3h-1.4
				c-0.3,0-0.5-0.2-0.5-0.5s0.2-0.5,0.5-0.5h1.4c0.3,0,0.5,0.2,0.5,0.5S87,71.3,86.8,71.3z M83.9,71.3h-1.4c-0.3,0-0.5-0.2-0.5-0.5
				s0.2-0.5,0.5-0.5h1.4c0.3,0,0.5,0.2,0.5,0.5S84.2,71.3,83.9,71.3z M81,71.3h-1.4c-0.3,0-0.5-0.2-0.5-0.5s0.2-0.5,0.5-0.5H81
				c0.3,0,0.5,0.2,0.5,0.5S81.3,71.3,81,71.3z M78.1,71.3h-1.4c-0.3,0-0.5-0.2-0.5-0.5s0.2-0.5,0.5-0.5h1.4c0.3,0,0.5,0.2,0.5,0.5
				S78.4,71.3,78.1,71.3z M75.2,71.3h-1.4c-0.3,0-0.5-0.2-0.5-0.5s0.2-0.5,0.5-0.5h1.4c0.3,0,0.5,0.2,0.5,0.5S75.5,71.3,75.2,71.3z
				 M72.4,71.3h-1.4c-0.3,0-0.5-0.2-0.5-0.5s0.2-0.5,0.5-0.5h1.4c0.3,0,0.5,0.2,0.5,0.5S72.7,71.3,72.4,71.3z M69.5,71.3h-1.4
				c-0.3,0-0.5-0.2-0.5-0.5s0.2-0.5,0.5-0.5h1.4c0.3,0,0.5,0.2,0.5,0.5S69.8,71.3,69.5,71.3z M66.6,71.3h-1.4
				c-0.3,0-0.5-0.2-0.5-0.5s0.2-0.5,0.5-0.5h1.4c0.3,0,0.5,0.2,0.5,0.5S66.9,71.3,66.6,71.3z M63.7,71.3h-1.4
				c-0.3,0-0.5-0.2-0.5-0.5s0.2-0.5,0.5-0.5h1.4c0.3,0,0.5,0.2,0.5,0.5S64,71.3,63.7,71.3z M60.9,71.3h-1.4c-0.3,0-0.5-0.2-0.5-0.5
				s0.2-0.5,0.5-0.5h1.4c0.3,0,0.5,0.2,0.5,0.5S61.2,71.3,60.9,71.3z M58,71.3h-1.4c-0.3,0-0.5-0.2-0.5-0.5c0-0.3,0.3-0.5,0.6-0.5
				l1.4,0c0.3,0,0.5,0.2,0.5,0.5S58.3,71.3,58,71.3z"/>
		</g>
	</g>
	<g class="st5">
		<path d="M33.5,72.6c-0.3,0-0.7-0.1-1-0.3L10.9,59.4c-0.9-0.6-1.2-1.8-0.7-2.7l12-20c0.6-0.9,1.8-1.2,2.7-0.7l21.7,12.9
			c0.4,0.3,0.8,0.7,0.9,1.2c0.1,0.5,0.1,1-0.2,1.5l-12,20c-0.3,0.4-0.7,0.8-1.2,0.9C33.9,72.6,33.7,72.6,33.5,72.6z M23.9,36.1
			c-0.5,0-1.1,0.3-1.4,0.8l-12,20c-0.5,0.8-0.2,1.7,0.6,2.2L32.7,72c0.8,0.5,1.7,0.2,2.2-0.6l12-20c0.2-0.4,0.3-0.8,0.2-1.2
			c-0.1-0.4-0.4-0.8-0.7-1L24.7,36.3C24.4,36.1,24.1,36.1,23.9,36.1z"/>
	</g>
	<g class="st5">
		<circle class="st27" cx="30.9" cy="75.1" r="10.8"/>
		<circle class="st28" cx="29" cy="71.9" r="2.9"/>
		<g>
			<path class="st8" d="M32.2,75.1c-2.7,0-4.9,2.2-4.9,4.9c0,0.8,0.2,1.5,0.5,2.1l9-3.7C36.2,76.5,34.3,75.1,32.2,75.1z"/>
		</g>
	</g>
	<g class="st5">
		<g>
			<path class="st29" d="M39.7,60.5c-1.6,0.2-2.4-1.6-2.4-1.6l-1.9-4.6c-5.5,0.2-17.2,0.6-20.8,0.4l-0.3,0.5
				c-0.4,0.6-0.2,1.5,0.5,1.8l25.3,15.1c0.6,0.4,1.5,0.2,1.8-0.5L49.5,59C45.5,59.6,40.6,60.4,39.7,60.5z"/>
			<path class="st30" d="M35.4,54.3L27,34.1c-0.1,0.1-0.2,0.2-0.2,0.3L14.6,54.7C18.2,54.9,30,54.5,35.4,54.3z"/>
		</g>
		<g>
			
				<image style="overflow:visible;opacity:0.57;" width="38" height="37" xlink:href="8B76D2D589A470F7.png"  transform="matrix(1 0 0 1 20.748 30.448)">
			</image>
			<g>
				<path class="st29" d="M39.7,60.5c0.9-0.1,5.7-0.9,9.8-1.5l4.9-8.1c0.4-0.6,0.2-1.5-0.5-1.8L28.6,33.9c-0.5-0.3-1.2-0.2-1.6,0.2
					l10.4,24.8C37.4,58.9,38.2,60.7,39.7,60.5z"/>
			</g>
		</g>
	</g>
	<g class="st5">
		<g class="st31">
			
				<image style="overflow:visible;" width="137" height="151" xlink:href="8B76D2D589A470F2.png"  transform="matrix(1 0 0 1 2 -7.3)">
			</image>
		</g>
		<g class="st31">
			
				<image style="overflow:visible;" width="80" height="87" xlink:href="8B76D2D589A470F3.png"  transform="matrix(1 0 0 1 54 58.7)">
			</image>
		</g>
		<path class="st8" d="M82.2,105.7l-39.1-7.1c-4.3-0.8-7.2-4.9-6.4-9.2l10-55.5c0.8-4.3,4.9-7.2,9.2-6.4L95,34.5
			c4.3,0.8,7.2,4.9,6.4,9.2l-10,55.5C90.6,103.6,86.5,106.4,82.2,105.7z"/>
		<path class="st32" d="M85.3,97.9l-41.8-7.3c-0.7-0.1-1.1-0.8-1-1.4l0-0.2c0.1-0.7,0.8-1.1,1.4-1l41.8,7.3c0.7,0.1,1.1,0.8,1,1.4
			l0,0.2C86.6,97.6,86,98,85.3,97.9z"/>
		<path class="st32" d="M86.4,90l-36.1-6.3c-0.7-0.1-1.1-0.8-1-1.4l0-0.2c0.1-0.7,0.8-1.1,1.4-1l36.1,6.3c0.7,0.1,1.1,0.8,1,1.4
			l0,0.2C87.7,89.7,87.1,90.2,86.4,90z"/>
		<path class="st32" d="M94.9,45.1l-24.3-4.2c-0.7-0.1-1.1-0.8-1-1.4l0-0.2c0.1-0.7,0.8-1.1,1.4-1l24.3,4.2c0.7,0.1,1.1,0.8,1,1.4
			l0,0.2C96.3,44.8,95.6,45.2,94.9,45.1z"/>
		<path class="st32" d="M93.4,51.4l-24.3-4.2c-0.7-0.1-1.1-0.8-1-1.4l0-0.2c0.1-0.7,0.8-1.1,1.4-1l24.3,4.2c0.7,0.1,1.1,0.8,1,1.4
			l0,0.2C94.7,51.1,94.1,51.5,93.4,51.4z"/>
		<path class="st32" d="M92,60.6l-37-6.5c-0.7-0.1-1.1-0.8-1-1.4l0-0.2c0.1-0.7,0.8-1.1,1.4-1l37,6.5c0.7,0.1,1.1,0.8,1,1.4l0,0.2
			C93.4,60.3,92.7,60.8,92,60.6z"/>
		<path class="st32" d="M90.2,68.1L48,60.8c-0.7-0.1-1.1-0.8-1-1.4l0-0.2c0.1-0.7,0.8-1.1,1.4-1l42.2,7.4c0.7,0.1,1.1,0.8,1,1.4
			l0,0.2C91.5,67.8,90.8,68.2,90.2,68.1z"/>
		<path class="st32" d="M82.8,79.4L47,73.1c-2-0.4-3.4-2.3-3.1-4.3l0.6-3.5c0.4-2,2.3-3.4,4.3-3.1l35.8,6.2c2,0.4,3.4,2.3,3.1,4.3
			l-0.6,3.5C86.8,78.3,84.8,79.7,82.8,79.4z"/>
		<path class="st33" d="M60.8,47.6l-7.3-1.3c-2-0.4-3.4-2.3-3.1-4.3l0.9-5.2c0.4-2,2.3-3.4,4.3-3.1l7.3,1.3c2,0.4,3.4,2.3,3.1,4.3
			l-0.9,5.2C64.7,46.5,62.8,47.9,60.8,47.6z"/>
		<g>
			<path class="st33" d="M87,82.5l0.1-0.3L87,82.5l-1.4-0.2c-0.2,0-0.3-0.2-0.3-0.4c0-0.2,0.2-0.3,0.4-0.3l1.4,0.2L87,82.5z
				 M88.3,82.1c-0.1,0-0.2,0-0.2-0.1c-0.2-0.1-0.2-0.3-0.1-0.5c0.1-0.1,0.2-0.3,0.2-0.4l0.1-0.7c0-0.2,0.2-0.3,0.4-0.3
				c0.2,0,0.3,0.2,0.3,0.4L89,81.2c0,0.3-0.2,0.5-0.3,0.8C88.5,82,88.4,82.1,88.3,82.1z M84.3,82.1C84.3,82.1,84.2,82.1,84.3,82.1
				l-1.4-0.2c-0.2,0-0.3-0.2-0.3-0.4c0-0.2,0.2-0.3,0.4-0.3l1.4,0.2c0.2,0,0.3,0.2,0.3,0.4C84.6,81.9,84.5,82.1,84.3,82.1z
				 M81.5,81.6C81.5,81.6,81.5,81.6,81.5,81.6l-1.4-0.2c-0.2,0-0.3-0.2-0.3-0.4c0-0.2,0.2-0.3,0.4-0.3l1.4,0.2
				c0.2,0,0.3,0.2,0.3,0.4C81.8,81.4,81.7,81.6,81.5,81.6z M78.7,81.1C78.7,81.1,78.7,81.1,78.7,81.1l-1.4-0.2
				c-0.2,0-0.3-0.2-0.3-0.4c0-0.2,0.2-0.3,0.4-0.3l1.4,0.2c0.2,0,0.3,0.2,0.3,0.4C79.1,81,78.9,81.1,78.7,81.1z M76,80.6
				C75.9,80.6,75.9,80.6,76,80.6l-1.4-0.2c-0.2,0-0.3-0.2-0.3-0.4c0-0.2,0.2-0.3,0.4-0.3l1.4,0.2c0.2,0,0.3,0.2,0.3,0.4
				C76.3,80.5,76.1,80.6,76,80.6z M73.2,80.1C73.2,80.1,73.2,80.1,73.2,80.1l-1.4-0.2c-0.2,0-0.3-0.2-0.3-0.4c0-0.2,0.2-0.3,0.4-0.3
				l1.4,0.2c0.2,0,0.3,0.2,0.3,0.4C73.5,80,73.4,80.1,73.2,80.1z M70.4,79.6C70.4,79.6,70.4,79.6,70.4,79.6L69,79.4
				c-0.2,0-0.3-0.2-0.3-0.4c0-0.2,0.2-0.3,0.4-0.3l1.4,0.2c0.2,0,0.3,0.2,0.3,0.4C70.7,79.5,70.6,79.6,70.4,79.6z M89,79.3
				C89,79.3,88.9,79.3,89,79.3c-0.3,0-0.4-0.2-0.4-0.4l0.2-1.4c0-0.2,0.2-0.3,0.4-0.3c0.2,0,0.3,0.2,0.3,0.4L89.3,79
				C89.3,79.2,89.1,79.3,89,79.3z M67.6,79.2C67.6,79.2,67.6,79.1,67.6,79.2l-1.4-0.2c-0.2,0-0.3-0.2-0.3-0.4c0-0.2,0.2-0.3,0.4-0.3
				l1.4,0.2c0.2,0,0.3,0.2,0.3,0.4C68,79,67.8,79.2,67.6,79.2z M64.9,78.7C64.9,78.7,64.8,78.7,64.9,78.7l-1.4-0.2
				c-0.2,0-0.3-0.2-0.3-0.4c0-0.2,0.2-0.3,0.4-0.3l1.4,0.2c0.2,0,0.3,0.2,0.3,0.4C65.2,78.5,65,78.7,64.9,78.7z M62.1,78.2
				C62.1,78.2,62.1,78.2,62.1,78.2l-1.4-0.2c-0.2,0-0.3-0.2-0.3-0.4c0-0.2,0.2-0.3,0.4-0.3l1.4,0.2c0.2,0,0.3,0.2,0.3,0.4
				C62.4,78.1,62.3,78.2,62.1,78.2z M59.3,77.7C59.3,77.7,59.3,77.7,59.3,77.7l-1.4-0.2c-0.2,0-0.3-0.2-0.3-0.4
				c0-0.2,0.2-0.3,0.4-0.3l1.4,0.2c0.2,0,0.3,0.2,0.3,0.4C59.6,77.6,59.5,77.7,59.3,77.7z M56.6,77.2C56.5,77.2,56.5,77.2,56.6,77.2
				L55.1,77c-0.2,0-0.3-0.2-0.3-0.4c0-0.2,0.2-0.3,0.4-0.3l1.4,0.2c0.2,0,0.3,0.2,0.3,0.4C56.9,77.1,56.7,77.2,56.6,77.2z
				 M53.8,76.7C53.8,76.7,53.7,76.7,53.8,76.7l-1.4-0.2c-0.2,0-0.3-0.2-0.3-0.4c0-0.2,0.2-0.3,0.4-0.3l1.4,0.2
				c0.2,0,0.3,0.2,0.3,0.4C54.1,76.6,54,76.7,53.8,76.7z M89.5,76.6C89.4,76.6,89.4,76.6,89.5,76.6c-0.3,0-0.4-0.2-0.4-0.4l0.2-1.4
				c0-0.2,0.2-0.3,0.4-0.3c0.2,0,0.3,0.2,0.3,0.4l-0.2,1.4C89.8,76.4,89.6,76.6,89.5,76.6z M51,76.3C51,76.3,51,76.2,51,76.3
				L49.6,76c-0.2,0-0.3-0.2-0.3-0.4c0-0.2,0.2-0.3,0.4-0.3l1.4,0.2c0.2,0,0.3,0.2,0.3,0.4C51.3,76.1,51.2,76.3,51,76.3z M48.2,75.8
				C48.2,75.8,48.2,75.8,48.2,75.8l-1.4-0.2c-0.2,0-0.3-0.2-0.3-0.4c0-0.2,0.2-0.3,0.4-0.3l1.4,0.2c0.2,0,0.3,0.2,0.3,0.4
				C48.6,75.6,48.4,75.8,48.2,75.8z M45.6,75c-0.1,0-0.2,0-0.3-0.1c-0.3-0.3-0.4-0.7-0.4-1.1c0-0.1,0-0.2,0-0.3l0-0.2
				c0-0.2,0.2-0.3,0.4-0.3c0.2,0,0.3,0.2,0.3,0.4l0,0.2c0,0.1,0,0.1,0,0.2c0,0.2,0.1,0.5,0.2,0.6c0.1,0.1,0.1,0.4,0,0.5
				C45.8,75,45.7,75,45.6,75z M89.4,73.9c-0.1,0-0.2,0-0.3-0.1c-0.1-0.2-0.3-0.3-0.6-0.3l-0.5-0.1c-0.2,0-0.3-0.2-0.3-0.4
				c0-0.2,0.2-0.3,0.4-0.3l0.5,0.1c0.4,0.1,0.7,0.3,1,0.6c0.1,0.1,0.1,0.4,0,0.5C89.6,73.8,89.5,73.9,89.4,73.9z M86.8,73.1
				C86.8,73.1,86.7,73.1,86.8,73.1l-1.4-0.2c-0.2,0-0.3-0.2-0.3-0.4c0-0.2,0.2-0.3,0.4-0.3l1.4,0.2c0.2,0,0.3,0.2,0.3,0.4
				C87.1,73,86.9,73.1,86.8,73.1z M84,72.6C84,72.6,84,72.6,84,72.6l-1.4-0.2c-0.2,0-0.3-0.2-0.3-0.4c0-0.2,0.2-0.3,0.4-0.3l1.4,0.2
				c0.2,0,0.3,0.2,0.3,0.4C84.3,72.5,84.2,72.6,84,72.6z M45.6,72.3C45.6,72.3,45.5,72.3,45.6,72.3c-0.3,0-0.4-0.2-0.4-0.4l0.2-1.4
				c0-0.2,0.2-0.3,0.4-0.3c0.2,0,0.3,0.2,0.3,0.4L45.9,72C45.9,72.2,45.7,72.3,45.6,72.3z M81.2,72.1C81.2,72.1,81.2,72.1,81.2,72.1
				l-1.4-0.2c-0.2,0-0.3-0.2-0.3-0.4c0-0.2,0.2-0.3,0.4-0.3l1.4,0.2c0.2,0,0.3,0.2,0.3,0.4C81.6,72,81.4,72.1,81.2,72.1z M78.5,71.6
				C78.4,71.6,78.4,71.6,78.5,71.6L77,71.4c-0.2,0-0.3-0.2-0.3-0.4c0-0.2,0.2-0.3,0.4-0.3l1.4,0.2c0.2,0,0.3,0.2,0.3,0.4
				C78.8,71.5,78.6,71.6,78.5,71.6z M75.7,71.2C75.7,71.2,75.6,71.2,75.7,71.2l-1.4-0.2c-0.2,0-0.3-0.2-0.3-0.4
				c0-0.2,0.2-0.3,0.4-0.3l1.4,0.2c0.2,0,0.3,0.2,0.3,0.4C76,71,75.9,71.2,75.7,71.2z M72.9,70.7C72.9,70.7,72.9,70.7,72.9,70.7
				l-1.4-0.2c-0.2,0-0.3-0.2-0.3-0.4c0-0.2,0.2-0.3,0.4-0.3L73,70c0.2,0,0.3,0.2,0.3,0.4C73.2,70.5,73.1,70.7,72.9,70.7z M70.1,70.2
				C70.1,70.2,70.1,70.2,70.1,70.2l-1.4-0.2c-0.2,0-0.3-0.2-0.3-0.4c0-0.2,0.2-0.3,0.4-0.3l1.4,0.2c0.2,0,0.3,0.2,0.3,0.4
				C70.5,70.1,70.3,70.2,70.1,70.2z M67.4,69.7C67.3,69.7,67.3,69.7,67.4,69.7l-1.4-0.2c-0.2,0-0.3-0.2-0.3-0.4
				c0-0.2,0.2-0.3,0.4-0.3l1.4,0.2c0.2,0,0.3,0.2,0.3,0.4C67.7,69.6,67.5,69.7,67.4,69.7z M46.1,69.5C46,69.5,46,69.5,46.1,69.5
				c-0.3,0-0.4-0.2-0.4-0.4l0.2-1.4c0-0.2,0.2-0.3,0.4-0.3c0.2,0,0.3,0.2,0.3,0.4l-0.2,1.4C46.4,69.4,46.2,69.5,46.1,69.5z
				 M64.6,69.2C64.6,69.2,64.6,69.2,64.6,69.2L63.1,69c-0.2,0-0.3-0.2-0.3-0.4c0-0.2,0.2-0.3,0.4-0.3l1.4,0.2c0.2,0,0.3,0.2,0.3,0.4
				C64.9,69.1,64.8,69.2,64.6,69.2z M61.8,68.7C61.8,68.7,61.8,68.7,61.8,68.7l-1.4-0.2c-0.2,0-0.3-0.2-0.3-0.4
				c0-0.2,0.2-0.3,0.4-0.3l1.4,0.2c0.2,0,0.3,0.2,0.3,0.4C62.1,68.6,62,68.7,61.8,68.7z M59,68.3C59,68.3,59,68.2,59,68.3L57.6,68
				c-0.2,0-0.3-0.2-0.3-0.4c0-0.2,0.2-0.3,0.4-0.3l1.4,0.2c0.2,0,0.3,0.2,0.3,0.4C59.4,68.1,59.2,68.3,59,68.3z M56.3,67.8
				C56.3,67.8,56.2,67.8,56.3,67.8l-1.4-0.2c-0.2,0-0.3-0.2-0.3-0.4c0-0.2,0.2-0.3,0.4-0.3l1.4,0.2c0.2,0,0.3,0.2,0.3,0.4
				C56.6,67.6,56.4,67.8,56.3,67.8z M53.5,67.3C53.5,67.3,53.5,67.3,53.5,67.3L52.1,67c-0.2,0-0.3-0.2-0.3-0.4
				c0-0.2,0.2-0.3,0.4-0.3l1.4,0.2c0.2,0,0.3,0.2,0.3,0.4C53.8,67.2,53.7,67.3,53.5,67.3z M50.7,66.8C50.7,66.8,50.7,66.8,50.7,66.8
				l-1.4-0.2c-0.2,0-0.3-0.2-0.3-0.4c0-0.2,0.2-0.3,0.4-0.3l1.4,0.2c0.2,0,0.3,0.2,0.3,0.4C51,66.7,50.9,66.8,50.7,66.8z M46.7,66.8
				c-0.1,0-0.2,0-0.2-0.1c-0.2-0.1-0.2-0.3-0.1-0.5c0.4-0.5,1-0.7,1.6-0.6c0.2,0,0.3,0.2,0.3,0.4c0,0.2-0.2,0.3-0.4,0.3
				c-0.3-0.1-0.7,0.1-0.9,0.3C46.9,66.7,46.8,66.8,46.7,66.8z"/>
		</g>
	</g>
	<path class="st34" d="M97.8,104.8L91.4,93c-0.4-0.7-1.1-1.1-1.9-1.2l-0.6-1.1c3.1-2,5.1-5.5,5.1-9.3c0-6.1-5-11.1-11.1-11.1
		s-11.1,5-11.1,11.1s5,11.1,11.1,11.1c1.3,0,2.6-0.2,3.8-0.7l0.7,1.2c-0.4,0.7-0.4,1.5,0,2.2l6.4,11.8c0.4,0.8,1.2,1.2,2,1.2
		c0.4,0,0.8-0.1,1.1-0.3C98,107.3,98.4,105.9,97.8,104.8z M74.2,81.4c0-4.8,3.9-8.6,8.6-8.6c4.8,0,8.6,3.9,8.6,8.6
		c0,3.3-1.8,6.3-4.8,7.7c-1.2,0.6-2.5,0.9-3.8,0.9C78.1,90,74.2,86.1,74.2,81.4z"/>
	<g class="st5">
		<path class="st35" d="M78.9,75.2l-36.6-6.6c-1.7-0.3-2.8-1.9-2.5-3.6l0.7-3.9c0.3-1.7,1.9-2.8,3.6-2.5l36.6,6.6
			c1.7,0.3,2.8,1.9,2.5,3.6l-0.7,3.9C82.2,74.3,80.6,75.5,78.9,75.2z"/>
		<path class="st36" d="M80.7,71l-28.6-5.1c-0.4-0.1-0.7-0.5-0.6-0.9l0-0.1c0.1-0.4,0.5-0.7,0.9-0.6L81,69.4
			c0.4,0.1,0.7,0.5,0.6,0.9l0,0.1C81.5,70.7,81.1,71,80.7,71z"/>
		<path class="st36" d="M80.2,73.6l-28.6-5.1C51.2,68.4,51,68,51,67.6l0-0.1c0.1-0.4,0.5-0.7,0.9-0.6L80.5,72
			c0.4,0.1,0.7,0.5,0.6,0.9l0,0.1C81,73.4,80.6,73.7,80.2,73.6z"/>
		<g>
			<path class="st37" d="M44.5,64.1c0,0.4,0.1,0.7,0.5,0.8c0.5,0.1,1.1-0.6,1.3-1.2l0.3-1c-0.1,0-0.2-0.1-0.5-0.1
				C45.3,62.5,44.6,63.2,44.5,64.1z"/>
			<path class="st37" d="M49.6,60.5l-7.3-0.9c-0.4-0.1-0.9,0.3-0.9,0.7l-0.7,5.9c-0.1,0.4,0.3,0.9,0.7,0.9l7.3,0.9
				c0.4,0.1,0.9-0.3,0.9-0.7l0.7-5.9C50.3,60.9,50,60.5,49.6,60.5z M48.7,63.5c-0.1,1.4-1,2.1-1.9,2c-0.4,0-0.7-0.3-0.6-0.9l0,0
				c-0.4,0.5-0.8,0.7-1.4,0.7c-0.5-0.1-1-0.5-0.9-1.3c0.1-1.2,1.1-2.1,2.4-2c0.4,0,0.7,0.2,1,0.3L46.8,64c-0.2,0.7-0.1,1,0.2,1.1
				c0.5,0.1,1.1-0.5,1.2-1.6c0.1-1.3-0.6-2.4-2-2.5c-1.5-0.1-2.9,0.9-3.1,2.8c-0.2,1.6,0.8,2.6,2.1,2.7c0.5,0.1,1,0,1.4-0.2l0.1,0.4
				c-0.5,0.2-1.1,0.3-1.7,0.2c-1.5-0.1-2.7-1.4-2.5-3.2c0.2-1.9,1.7-3.4,3.7-3.2C47.8,60.7,48.8,61.9,48.7,63.5z"/>
		</g>
	</g>
	<g class="st5">
		<g class="st38">
			
				<image style="overflow:visible;" width="88" height="86" xlink:href="8B76D2D589A470FD.png"  transform="matrix(1 0 0 1 47 -6.3)">
			</image>
		</g>
		<path class="st8" d="M120.4,35.9l0.5-1.8v-13c0,0,0.5-2.7-3.6-1.4s-30.8,7.9-30.8,7.9s-2.8,0.2,0,4.3c2.8,4,5.2,9.2,5.2,9.2
			L120.4,35.9z"/>
		<g>
			<path class="st27" d="M125.2,51.7l-4.3-17.6L91.8,41l4.3,17.7c0.4,1.5,1.8,2.4,3.3,2l23.8-5.8C124.6,54.7,125.5,53.2,125.2,51.7z
				"/>
		</g>
		<g>
			<path class="st8" d="M103.3,54.7l-0.2-0.9l0.9-1.3c2.1-3.2,2.9-4.8,2.6-6.4c-0.3-1.1-1-1.9-2.6-1.5c-1,0.2-1.6,0.9-2,1.4
				l-0.7-0.9c0.6-0.8,1.5-1.5,2.7-1.8c2.3-0.5,3.6,0.8,3.9,2.3c0.5,1.9-0.6,3.8-2.3,6.5l-0.7,1l0,0l4.7-1.1l0.3,1.2L103.3,54.7z"/>
			<path class="st8" d="M115.6,42l-4,1l0.2,2.8c0.2-0.1,0.5-0.2,0.8-0.3c0.8-0.2,1.7-0.2,2.4,0c0.9,0.3,1.8,1,2.1,2.3
				c0.5,2-0.8,4-3,4.5c-1.1,0.3-2.2,0.2-2.8,0l0.1-1.2c0.5,0.2,1.4,0.3,2.4,0c1.3-0.3,2.3-1.5,1.9-2.9c-0.3-1.3-1.5-2.1-3.6-1.6
				c-0.6,0.1-1,0.3-1.4,0.5l-0.5-5.2l5-1.2L115.6,42z"/>
		</g>
		<g>
			<path d="M118.5,37.1c-0.4,0-0.8-0.3-1.4-0.8c-0.1-0.1-0.1-0.2,0-0.3c0.1-0.1,0.2-0.1,0.3,0c0.8,0.8,1.1,0.8,1.2,0.7
				c0.3-0.1,0.5-0.8,0.3-3.2c-0.1-0.7-0.3-1.2-0.7-1.5c-0.4-0.3-0.9-0.3-0.9-0.3c-0.1,0-0.2-0.1-0.2-0.1c0-0.1,0.1-0.2,0.1-0.2
				c0,0,0.6-0.1,1.2,0.3c0.5,0.3,0.7,0.9,0.8,1.7c0.2,2.2,0.1,3.3-0.5,3.5C118.7,37.1,118.6,37.1,118.5,37.1z"/>
		</g>
		<g>
			<path d="M114.1,38.4c-0.4,0-0.8-0.3-1.4-0.8c-0.1-0.1-0.1-0.2,0-0.3c0.1-0.1,0.2-0.1,0.3,0c0.8,0.8,1.1,0.8,1.2,0.7
				c0.3-0.1,0.5-0.8,0.3-3.2c-0.1-0.7-0.3-1.2-0.7-1.5c-0.4-0.3-0.9-0.3-0.9-0.3c-0.1,0-0.2-0.1-0.2-0.1c0-0.1,0.1-0.2,0.1-0.2
				c0,0,0.6-0.1,1.2,0.3c0.5,0.3,0.7,0.9,0.8,1.7c0.2,2.2,0.1,3.3-0.5,3.5C114.3,38.4,114.2,38.4,114.1,38.4z"/>
		</g>
		<g>
			<path d="M109.6,39.7c-0.4,0-0.8-0.3-1.4-0.8c-0.1-0.1-0.1-0.2,0-0.3c0.1-0.1,0.2-0.1,0.3,0c0.8,0.8,1.1,0.8,1.2,0.7
				c0.3-0.1,0.5-0.8,0.3-3.2c-0.1-0.7-0.3-1.2-0.7-1.5c-0.4-0.3-0.9-0.3-0.9-0.3c-0.1,0-0.2-0.1-0.2-0.1c0-0.1,0.1-0.2,0.1-0.2
				c0,0,0.6-0.1,1.2,0.3c0.5,0.3,0.7,0.9,0.8,1.7c0.2,2.2,0.1,3.3-0.5,3.5C109.8,39.7,109.7,39.7,109.6,39.7z"/>
		</g>
		<g>
			<path d="M104.8,41c-0.4,0-0.8-0.3-1.4-0.8c-0.1-0.1-0.1-0.2,0-0.3c0.1-0.1,0.2-0.1,0.3,0c0.8,0.8,1.1,0.8,1.2,0.7
				c0.3-0.1,0.5-0.8,0.3-3.2c-0.1-0.7-0.3-1.2-0.7-1.5c-0.4-0.3-0.9-0.3-0.9-0.3c-0.1,0-0.2-0.1-0.2-0.1c0-0.1,0.1-0.2,0.1-0.2
				c0,0,0.6-0.1,1.2,0.3c0.5,0.3,0.7,0.9,0.8,1.7c0.2,2.2,0.1,3.3-0.5,3.5C105,40.9,104.9,41,104.8,41z"/>
		</g>
		<g>
			<path d="M100.3,41.9c-0.4,0-0.8-0.3-1.4-0.8c-0.1-0.1-0.1-0.2,0-0.3c0.1-0.1,0.2-0.1,0.3,0c0.8,0.8,1.1,0.8,1.2,0.7
				c0.3-0.1,0.5-0.8,0.3-3.2c-0.1-0.7-0.3-1.2-0.7-1.5c-0.4-0.3-0.9-0.3-0.9-0.3c-0.1,0-0.2-0.1-0.2-0.1c0-0.1,0.1-0.2,0.1-0.2
				c0,0,0.6-0.1,1.2,0.3c0.5,0.3,0.7,0.9,0.8,1.7c0.2,2.2,0.1,3.3-0.5,3.5C100.5,41.9,100.4,41.9,100.3,41.9z"/>
		</g>
		<g>
			<path d="M95.5,43.2c-0.4,0-0.8-0.3-1.4-0.8c-0.1-0.1-0.1-0.2,0-0.3c0.1-0.1,0.2-0.1,0.3,0c0.8,0.8,1.1,0.8,1.2,0.7
				c0.3-0.1,0.5-0.8,0.3-3.2c-0.1-0.7-0.3-1.2-0.7-1.5c-0.4-0.3-0.9-0.3-0.9-0.3c-0.1,0-0.2-0.1-0.2-0.1c0-0.1,0.1-0.2,0.1-0.2
				c0,0,0.6-0.1,1.2,0.3c0.5,0.3,0.7,0.9,0.8,1.7c0.2,2.2,0.1,3.3-0.5,3.5C95.7,43.1,95.6,43.2,95.5,43.2z"/>
		</g>
		<circle cx="94.1" cy="42.1" r="0.3"/>
		<circle cx="99" cy="40.9" r="0.3"/>
		<circle cx="103.4" cy="39.9" r="0.3"/>
		<circle cx="108.3" cy="38.6" r="0.3"/>
		<circle cx="112.7" cy="37.4" r="0.3"/>
		<circle cx="117.2" cy="36" r="0.3"/>
	</g>
	<circle class="st39" cx="80.5" cy="5.4" r="3.8"/>
	<circle class="st39" cx="45.9" cy="109.4" r="2.4"/>
	<circle class="st40" cx="29.7" cy="90" r="2.2"/>
	<circle class="st40" cx="24.4" cy="87.8" r="0.7"/>
</g>
<g>
	<g>
		<g>
			
				<linearGradient id="SVGID_1_" gradientUnits="userSpaceOnUse" x1="44.0341" y1="145.3574" x2="94.4207" y2="11.4528" gradientTransform="matrix(1 0 0 -1 0 141.7323)">
				<stop  offset="0" style="stop-color:#3FACFF;stop-opacity:0"/>
				<stop  offset="0.9981" style="stop-color:#FFB3B3"/>
			</linearGradient>
			<path class="st41" d="M14.8,31.8c-5.7,9.4-6.3,25.6-2.1,35.8c3.7,8.9,10.9,17.2,20.5,18.3c3.5,0.4,7.1-0.2,10.6,0.4
				c12,2.2,16.4,16.9,25.7,24.8c6.5,5.5,15.4,7.4,23.8,6.3c8.4-1.1,16.3-4.8,23.2-9.7c5.5-3.8,10.6-8.6,13.3-14.7
				c5.7-12.8-1-28.2-11.3-37.7c-3.2-2.9-6.8-5.5-9.5-9c-2.7-3.4-4.4-8-3.1-12.2c1-3.3,3.8-5.9,4.8-9.2c1.4-4.5-0.7-9.6-4.2-12.8
				c-3.5-3.2-8.2-4.8-12.8-5.9C74.3,1.6,32,3.5,14.8,31.8L14.8,31.8z"/>
		</g>
		<g>
			<g>
				<path class="st42" d="M117,55.5V42.6c2.2-2.2,3.6-5.3,3.6-8.7c0-6.9-5.6-12.4-12.4-12.4c-6.3,0-11.5,4.7-12.3,10.8h-14
					c-0.6,0-1.1,0.2-1.5,0.6H69.7h-2.1H55.7c-0.8,0-1.6,0.4-2,1.1l-4.1,6.6H28.4C27,40.6,26,41.6,26,43v56.4c0,1.3,1.1,2.4,2.4,2.4
					h86.2c1.3,0,2.4-1.1,2.4-2.4V72.9c2.2-2.2,3.6-5.3,3.6-8.7C120.5,60.8,119.2,57.7,117,55.5z"/>
				<g>
					<path class="st43" d="M69.7,26.8h-14c-0.8,0-1.6,0.4-2,1.1l-4.3,6.8h20.3L69.7,26.8L69.7,26.8z"/>
					<path class="st44" d="M81.6,26.8h-14c-0.8,0-1.6,0.4-2,1.1l-4.3,6.8h20.3L81.6,26.8L81.6,26.8z"/>
					<path class="st45" d="M117,28.6v64.6c0,1.3-1.1,2.4-2.4,2.4H28.4c-1.3,0-2.4-1.1-2.4-2.4V36.9c0-1.3,1.1-2.4,2.4-2.4h46.9
						l4.5-7.1c0.4-0.7,1.2-1.1,2-1.1h32.8C115.9,26.2,117,27.3,117,28.6L117,28.6z"/>
					<path class="st46" d="M117,54.6V72c-2.3,2.3-5.4,3.7-8.9,3.7c-6.9,0-12.4-5.6-12.4-12.4c0-6.9,5.6-12.4,12.4-12.4
						C111.6,50.8,114.7,52.3,117,54.6L117,54.6z"/>
					<path class="st46" d="M117,28.6v13.3c-2.3,2.3-5.4,3.7-8.9,3.7c-6.9,0-12.4-5.6-12.4-12.4c0-2.6,0.8-5,2.2-7h16.8
						C115.9,26.2,117,27.3,117,28.6L117,28.6z"/>
					<path class="st47" d="M77.5,88.3h-42c-1.3,0-2.4-1.1-2.4-2.4v-7c0-1.3,1.1-2.4,2.4-2.4h42c1.3,0,2.4,1.1,2.4,2.4v7
						C79.9,87.3,78.8,88.3,77.5,88.3z"/>
					<path class="st48" d="M105.7,88.3H88c-1.3,0-2.4-1.1-2.4-2.4v-7c0-1.3,1.1-2.4,2.4-2.4h17.7c1.3,0,2.4,1.1,2.4,2.4v7
						C108.1,87.3,107,88.3,105.7,88.3L105.7,88.3z"/>
				</g>
				<g>
					<path class="st44" d="M59.1,83.9H39.3c-0.7,0-1.2-0.5-1.2-1.2V69.4c0-0.7,0.5-1.2,1.2-1.2h19.9c0.7,0,1.2,0.5,1.2,1.2v13.3
						C60.3,83.4,59.8,83.9,59.1,83.9L59.1,83.9z"/>
					<g>
						<path class="st8" d="M49.5,74.7c0-2.2-1.8-4-4-4s-4,1.8-4,4c0,1.1,0.4,2.1,1.1,2.8c-0.7,0.7-1.1,1.7-1.1,2.8
							c0,0.7,0.5,1.2,1.2,1.2s1.2-0.5,1.2-1.2c0-0.9,0.7-1.6,1.6-1.6c0.9,0,1.6,0.7,1.6,1.6c0,0.7,0.5,1.2,1.2,1.2s1.2-0.5,1.2-1.2
							c0-1.1-0.4-2.1-1.1-2.8C49.1,76.7,49.5,75.8,49.5,74.7z M45.6,73.1c0.9,0,1.6,0.7,1.6,1.6s-0.7,1.6-1.6,1.6
							c-0.9,0-1.6-0.7-1.6-1.6S44.7,73.1,45.6,73.1z"/>
						<g>
							<path class="st8" d="M55.6,81.4h-2c-0.7,0-1.2-0.5-1.2-1.2S53,79,53.6,79h2c0.7,0,1.2,0.5,1.2,1.2S56.3,81.4,55.6,81.4z"/>
						</g>
						<g>
							<path class="st8" d="M55.6,77.6h-2c-0.7,0-1.2-0.5-1.2-1.2s0.5-1.2,1.2-1.2h2c0.7,0,1.2,0.5,1.2,1.2S56.3,77.6,55.6,77.6z"/>
						</g>
					</g>
				</g>
				<g>
					<circle class="st49" cx="108.1" cy="27.9" r="12.4"/>
					<path class="st8" d="M111.3,29.8c1.1-0.9,1.8-2.3,1.8-3.8c0-2.8-2.2-5-5-5s-5,2.2-5,5c0,1.5,0.7,2.9,1.8,3.8
						c-1.1,0.9-1.8,2.3-1.8,3.8c0,0.7,0.5,1.2,1.2,1.2c0.7,0,1.2-0.5,1.2-1.2c0-1.4,1.2-2.6,2.6-2.6c1.4,0,2.6,1.2,2.6,2.6
						c0,0.7,0.5,1.2,1.2,1.2c0.7,0,1.2-0.5,1.2-1.2C113.1,32.1,112.4,30.7,111.3,29.8z M105.5,26c0-1.4,1.2-2.6,2.6-2.6
						c1.4,0,2.6,1.2,2.6,2.6c0,1.4-1.2,2.6-2.6,2.6C106.6,28.6,105.5,27.4,105.5,26z"/>
				</g>
				<path class="st49" d="M43.2,27.9c-0.3,0-0.6-0.1-0.8-0.3l-1.2-1.2L40,27.5c-0.5,0.5-1.2,0.5-1.7,0c-0.5-0.5-0.5-1.2,0-1.7l2-2
					c0.5-0.5,1.2-0.5,1.7,0l2,2c0.5,0.5,0.5,1.2,0,1.7C43.8,27.7,43.5,27.9,43.2,27.9L43.2,27.9z"/>
				<path class="st43" d="M51.4,21.7c-0.3,0-0.6-0.1-0.8-0.3l-1.2-1.2l-1.2,1.2c-0.5,0.5-1.2,0.5-1.7,0c-0.5-0.5-0.5-1.2,0-1.7l2-2
					c0.5-0.5,1.2-0.5,1.7,0l2,2c0.5,0.5,0.5,1.2,0,1.7C52,21.6,51.7,21.7,51.4,21.7z"/>
				<path class="st43" d="M56.7,105.1c-0.3,0-0.6-0.1-0.8-0.3l-1.2-1.2l-1.2,1.2c-0.5,0.5-1.2,0.5-1.7,0c-0.5-0.5-0.5-1.2,0-1.7l2-2
					c0.5-0.5,1.2-0.5,1.7,0l2,2c0.5,0.5,0.5,1.2,0,1.7C57.3,105,57,105.1,56.7,105.1z"/>
				<path class="st49" d="M104.6,107.6c-0.2,0-0.5-0.1-0.7-0.2l-0.8-0.6l-0.8,0.6c-0.4,0.3-1,0.3-1.4,0c-0.4-0.3-0.6-0.8-0.4-1.3
					l0.3-0.9l-0.8-0.6c-0.4-0.3-0.6-0.8-0.4-1.3c0.2-0.5,0.6-0.8,1.1-0.8h1l0.3-0.9c0.2-0.5,0.6-0.8,1.1-0.8c0.5,0,1,0.3,1.1,0.8
					l0.3,0.9h1c0.5,0,1,0.3,1.1,0.8c0.2,0.5,0,1-0.4,1.3l-0.8,0.6l0.3,0.9c0.2,0.5,0,1-0.4,1.3C105,107.5,104.8,107.6,104.6,107.6
					L104.6,107.6z"/>
				<path class="st46" d="M87.4,20.4c-0.2,0-0.5-0.1-0.7-0.2l-0.8-0.6l-0.8,0.6c-0.4,0.3-1,0.3-1.4,0c-0.4-0.3-0.6-0.8-0.4-1.3
					l0.3-0.9l-0.8-0.6c-0.4-0.3-0.6-0.8-0.4-1.3c0.2-0.5,0.6-0.8,1.1-0.8h1l0.3-0.9c0.2-0.5,0.6-0.8,1.1-0.8s1,0.3,1.1,0.8l0.3,0.9
					h1c0.5,0,1,0.3,1.1,0.8c0.2,0.5,0,1-0.4,1.3l-0.8,0.6l0.3,0.9c0.2,0.5,0,1-0.4,1.3C87.8,20.3,87.6,20.4,87.4,20.4L87.4,20.4z"/>
			</g>
			<g>
				<circle class="st49" cx="108.1" cy="58.1" r="12.4"/>
			</g>
		</g>
	</g>
	<g>
		<g>
			<path class="st50" d="M113.3,64.7l-7.6-7.6l1.9-1.9l7.6,7.6c0.5,0.5,0.5,1.4,0,1.9C114.7,65.2,113.8,65.2,113.3,64.7z"/>
			<path class="st45" d="M103.7,59.2l-1.7-1.7c-0.6-0.6-0.6-1.7,0-2.3l3.7-3.7c0.6-0.6,1.7-0.6,2.3,0l1.7,1.7c0.6,0.6,0.6,1.7,0,2.3
				l-3.7,3.7C105.3,59.8,104.3,59.8,103.7,59.2z"/>
		</g>
		<g>
			<g>
				<path class="st50" d="M112,54.2c-0.5,0.5-1.2,0.5-1.7,0l-3.3-3.3c-0.5-0.5-0.5-1.2,0-1.7c0.5-0.5,1.2-0.5,1.7,0l3.3,3.3
					C112.4,53,112.4,53.7,112,54.2z"/>
			</g>
			<g>
				<path class="st50" d="M104.7,61.4c-0.5,0.5-1.2,0.5-1.7,0l-3.3-3.3c-0.5-0.5-0.5-1.2,0-1.7c0.5-0.5,1.2-0.5,1.7,0l3.3,3.3
					C105.2,60.2,105.2,60.9,104.7,61.4z"/>
			</g>
		</g>
	</g>
</g>
</svg>
