<?xml version="1.0" encoding="utf-8"?>
<!-- Generator: Adobe Illustrator 22.1.0, SVG Export Plug-In . SVG Version: 6.00 Build 0)  -->
<svg version="1.1" id="Layer_1" xmlns="http://www.w3.org/2000/svg" xmlns:xlink="http://www.w3.org/1999/xlink" x="0px" y="0px"
	 viewBox="0 0 141.7 141.7" style="enable-background:new 0 0 141.7 141.7;" xml:space="preserve">
<style type="text/css">
	.st0{fill:#FAA21B;}
	.st1{fill:#4E66A7;}
	.st2{fill:#E6E6E5;}
	.st3{fill:#4C65A8;}
	.st4{fill:none;}
	.st5{fill:#324C85;}
	.st6{fill:#FFFFFF;}
	.st7{fill:#F68C1F;}
</style>
<g>
	<rect x="96" y="28.1" class="st0" width="9.7" height="9.7"/>
	<rect x="118.1" y="31.2" class="st1" width="6.7" height="6.7"/>
	<rect x="117.1" y="48.9" class="st1" width="5.9" height="5.9"/>
	<rect x="92.4" y="47.5" class="st1" width="13.3" height="13.3"/>
	<rect x="107.4" y="37.9" class="st0" width="9.6" height="9.6"/>
	<ellipse class="st2" cx="70.9" cy="106.7" rx="70.9" ry="10.9"/>
	<path class="st3" d="M92.4,106.5l-12.5,2.2c0,0-4.5,0.9-11.7,0c-7.2-0.9-46.7-5.1-46.7-5.1l70.9-8.8l2.8,0.2l37.7,5.4l-18.8,2.6
		l-14.2-1.7c0,0-1.1-0.2-3.9,0.1c-2.8,0.3-14.3,2.6-14.3,2.6s-2.4,0.4,1.5,1.2C87.1,106.1,92.4,106.5,92.4,106.5z"/>
	<g>
		<polygon class="st4" points="21.4,91.7 17,48.7 5.2,48.7 20.5,96.8 29.7,95.6 21.9,96.5 		"/>
		<polygon class="st4" points="22.8,95.3 82,89 88.5,88.1 88.5,47.3 88.5,31.5 15.6,25.2 17.5,43.3 20.6,43.3 21.2,48.7 18,48.7 
			22.4,91.6 		"/>
		<path class="st5" d="M129.7,100.7c-2.8,0.6-48.1,9.7-48.1,9.7s-3.5,1.3-10.1,0.4c-6.6-0.9-48.1-6.9-48.1-6.9l71.8-8.9L89.5,73
			v16.2l-59.9,6.5l-9.2,1.2L5.2,48.7H17l-0.6-5.4h-12c0,0-5.6-0.1-4,5.4s16.4,52.4,16.4,52.4s0.9,5.8,8.3,6.7
			c7.4,0.9,44.5,6.1,44.5,6.1s4.6,1.1,15.1-0.9c10.4-2,46.5-9.5,46.5-9.5s2.2-0.4,2.2-1.9C133.5,100.2,132.5,100.2,129.7,100.7z"/>
		<polygon class="st6" points="18,48.7 17.5,43.3 16.5,43.3 17,48.7 		"/>
	</g>
	<g>
		<path class="st7" d="M22.8,95.3l65.7-7.1V48.7c-7.1,23.2-33.4,39.6-66.2,42.4l0.1,0.5L22.8,95.3z"/>
		<path class="st0" d="M88.5,48.7v-1.3V31.5l-72.9-6.3l6.7,65.9C55.1,88.2,81.5,71.8,88.5,48.7z"/>
	</g>
	<g>
		<path class="st6" d="M78.7,35.7l3.2,3.3l-3.7,6.5c0,0-0.8,2.1-5.5,4.4c-4.7,2.3-6.9,6.2-19.4,19V71c0,0,0,1.3-1.9,3.2
			C49.6,76.2,41,86.8,41,86.8s-3,4-6.6,2.4c-3.5-1.6-5.6-4.2-5.6-6.7c0.1-2.5,3.4-4.8,3.4-4.8l12.1-10.7c0,0,2.4-2,5.6-1.3
			l15.6-16.2c0,0,2.4-2.8,3.5-5.7c1-2.9,2.4-3.6,4.4-4.7C75.3,37.9,78.7,35.7,78.7,35.7z"/>
		<path class="st6" d="M33.3,35l7.8,7.7L39.9,48l-5.6,1.4L26,42.2c0,0-2.9,15.7,15.1,13.6l8,6.8l6.2-6.5l-7.2-6.8
			C48.2,49.3,51.4,33.2,33.3,35z"/>
		<path class="st6" d="M62.2,62.2L56,68.9l17.7,15.8c0,0,4,3.9,6.9,0.4c2.9-3.5-1.6-7.2-1.6-7.2L62.2,62.2z"/>
	</g>
</g>
</svg>
