<svg id="Layer_1" data-name="Layer 1" xmlns="http://www.w3.org/2000/svg" viewBox="0 0 26.44 25.7"><defs><style>.cls-1{fill:#e4222f;}</style></defs><title>lsw_logo_bird</title><path class="cls-1" d="M23.7,25.7a.6.6,0,0,1-.4-.1l-1.9-.3-3-.6a33.11,33.11,0,0,1-4.2-1.2,28.33,28.33,0,0,1-3.6-1.6,10.71,10.71,0,0,1-2.2-1.5,6.39,6.39,0,0,1-1.3-1.5,2.39,2.39,0,0,1-.5-1.4v-.3c-.1,0-.3-.1-.4-.1a18.12,18.12,0,0,1-3.1-.9,5.07,5.07,0,0,1-1.6-.9,5.24,5.24,0,0,1-1.1-1,3.13,3.13,0,0,1-.5-1A1.91,1.91,0,0,1,.1,12,2.84,2.84,0,0,1,1,11a5.85,5.85,0,0,1,1.7-1A6.29,6.29,0,0,1,5.5,8.8l1.2-.3V8.4a4.42,4.42,0,0,1,.6-1.6A5,5,0,0,1,8.7,5.3a20,20,0,0,1,2.4-1.6A25.9,25.9,0,0,1,14.9,2,27.46,27.46,0,0,1,19,.9l3-.6L23.6,0h0A37.06,37.06,0,0,0,19,1.9a20.74,20.74,0,0,0-3.2,1.9,8.13,8.13,0,0,0-1.9,1.8,5.24,5.24,0,0,0-1,1.8,3.73,3.73,0,0,0,.2,3.1h.1a35.14,35.14,0,0,1,5.7-2.1c1.6-.4,3.1-.8,4.7-1.1.8-.2,1.7-.3,2.5-.5h0c-1.6.6-3.3,1.2-4.9,1.9a24.19,24.19,0,0,0-3.9,2.1,16.41,16.41,0,0,0-2.5,1.9l-.1.1.1.1a9.51,9.51,0,0,0,2,1.5c1.3.8,2.6,1.5,3.9,2.2A48.67,48.67,0,0,0,26,18.7c.1,0,.2.1.3.1-.2,0-.5-.1-.7-.1-.7-.1-1.4-.3-2.1-.4-1.4-.3-2.8-.6-4.2-1-1.6-.5-3.3-1-4.8-1.6-.5-.2-.9-.4-1.4-.6H13v.1a4.06,4.06,0,0,0-.4,1.9,4.14,4.14,0,0,0,.5,1.9,6.1,6.1,0,0,0,1.2,1.6,9.2,9.2,0,0,0,2.5,1.9c1.2.7,2.4,1.3,3.6,1.9,1,.4,2.1.8,3.3,1.3-.1-.1,0-.1,0,0ZM9.1,12.8h0c-.2-.2-.4-.3-.5-.4a6.53,6.53,0,0,1-1.3-1.6,4.71,4.71,0,0,1-.6-1.5V9H6.6a7.1,7.1,0,0,0-1.4,1,4.12,4.12,0,0,0-1,1.3A2.9,2.9,0,0,0,4,13.7a6.38,6.38,0,0,0,.8,1.4,6.23,6.23,0,0,0,1.8,1.4h.1v-.1a.9.9,0,0,1,.1-.5,3.46,3.46,0,0,1,.8-1.6A9.27,9.27,0,0,1,9,12.9.1.1,0,0,0,9.1,12.8Z" transform="translate(0.14 0)"
fill="#FFFFFF"/></svg>