<?xml version="1.0" encoding="utf-8"?>
<!-- Generator: Adobe Illustrator 22.1.0, SVG Export Plug-In . SVG Version: 6.00 Build 0)  -->
<svg version="1.1" id="Layer_1" xmlns="http://www.w3.org/2000/svg" xmlns:xlink="http://www.w3.org/1999/xlink" x="0px" y="0px"
	 viewBox="0 0 141.7 25.7" style="enable-background:new 0 0 141.7 25.7;" xml:space="preserve">
<style type="text/css">
	.st0{fill:#E4222F;}
	.st1{fill:#2E3192;}
</style>
<g>
	<path class="st0" d="M23.7,25.7c-0.1,0-0.3,0-0.4-0.1c-0.6-0.1-1.3-0.2-1.9-0.3c-1-0.2-2-0.4-3-0.6c-1.4-0.3-2.8-0.7-4.2-1.2
		c-1.2-0.4-2.4-1-3.6-1.6c-0.8-0.4-1.5-0.9-2.2-1.5c-0.5-0.4-0.9-0.9-1.3-1.5c-0.3-0.4-0.5-0.9-0.5-1.4c0-0.1,0-0.2,0-0.3
		c-0.1,0-0.3-0.1-0.4-0.1c-1-0.2-2.1-0.5-3.1-0.9c-0.6-0.2-1.1-0.5-1.6-0.9c-0.4-0.3-0.8-0.6-1.1-1c-0.2-0.3-0.4-0.6-0.5-1
		c-0.1-0.5,0-0.9,0.2-1.3c0.2-0.4,0.5-0.7,0.9-1c0.5-0.4,1.1-0.8,1.7-1C3.6,9.3,4.5,9,5.5,8.8c0.4-0.1,0.8-0.2,1.2-0.3
		c0,0,0,0,0-0.1C6.8,7.8,7,7.3,7.3,6.8c0.4-0.6,0.8-1.1,1.4-1.5c0.7-0.6,1.6-1.1,2.4-1.6C12.3,3,13.6,2.5,14.9,2
		c1.3-0.5,2.7-0.8,4.1-1.1c1-0.2,2-0.4,3-0.6c0.5-0.1,1.1-0.2,1.6-0.3c0,0,0.1,0,0.1,0c0,0-0.1,0-0.1,0c-1.6,0.5-3.1,1.2-4.6,1.9
		c-1.1,0.5-2.2,1.2-3.2,1.9c-0.7,0.5-1.4,1.1-1.9,1.8c-0.4,0.5-0.8,1.1-1,1.8c-0.4,1.1-0.3,2.1,0.2,3.1c0,0,0,0,0,0c0,0,0.1,0,0.1,0
		C15,9.6,16.9,9,18.9,8.4c1.6-0.4,3.1-0.8,4.7-1.1c0.8-0.2,1.7-0.3,2.5-0.5c0,0,0.1,0,0.1,0c0,0-0.1,0-0.1,0
		c-1.6,0.6-3.3,1.2-4.9,1.9c-1.4,0.6-2.7,1.3-3.9,2.1c-0.9,0.6-1.8,1.2-2.5,1.9c0,0-0.1,0.1-0.1,0.1c0,0,0.1,0.1,0.1,0.1
		c0.6,0.6,1.3,1.1,2,1.5c1.3,0.8,2.6,1.5,3.9,2.2c1.7,0.8,3.5,1.5,5.3,2.1c0.1,0,0.2,0.1,0.3,0.1c-0.2,0-0.5-0.1-0.7-0.1
		c-0.7-0.1-1.4-0.3-2.1-0.4c-1.4-0.3-2.8-0.6-4.2-1c-1.6-0.5-3.3-1-4.8-1.6c-0.5-0.2-0.9-0.4-1.4-0.6c0,0-0.1,0-0.1,0c0,0,0,0,0,0.1
		c-0.3,0.6-0.4,1.2-0.4,1.9c0,0.7,0.2,1.3,0.5,1.9c0.3,0.6,0.7,1.1,1.2,1.6c0.7,0.8,1.6,1.4,2.5,1.9c1.2,0.7,2.4,1.3,3.6,1.9
		C21.4,24.8,22.5,25.2,23.7,25.7C23.6,25.6,23.7,25.6,23.7,25.7C23.7,25.7,23.7,25.7,23.7,25.7z M9.1,12.8
		C9.1,12.8,9.1,12.8,9.1,12.8c-0.2-0.2-0.4-0.3-0.5-0.4c-0.5-0.5-1-1-1.3-1.6c-0.3-0.5-0.5-1-0.6-1.5c0-0.1,0-0.2,0-0.3c0,0,0,0,0,0
		c0,0,0,0-0.1,0c-0.5,0.3-1,0.6-1.4,1c-0.4,0.4-0.8,0.8-1,1.3c-0.4,0.8-0.5,1.6-0.2,2.4c0.2,0.5,0.5,1,0.8,1.4
		c0.5,0.6,1.1,1,1.8,1.4c0,0,0,0,0.1,0c0,0,0-0.1,0-0.1c0-0.2,0-0.3,0.1-0.5c0.1-0.6,0.4-1.1,0.8-1.6c0.4-0.5,0.9-1,1.4-1.4
		C9,12.9,9.1,12.9,9.1,12.8z"/>
	<g>
		<path class="st0" d="M34.4,16.6c0-0.1,0-0.1,0-0.2c0-0.2,0-0.5,0-0.5h2.1c0,0,0.2,0.3,0.2,0.8c0,0.1,0,0.2,0,0.3
			c-0.3,1.2-1.1,1.8-2.4,1.8h-3.7c-1.4,0-2-0.4-2-1.5c0-0.3,0-0.6,0.1-1l2-9.5h2.6l-2,9.2c0,0.2-0.1,0.4-0.1,0.5
			c0,0.4,0.2,0.4,0.8,0.4h1.7C34.2,17,34.4,16.8,34.4,16.6z"/>
		<path class="st0" d="M47.4,9.3l1.5,9.5h-2.8l-0.3-2.4h-5.2l-1.3,2.4h-2.8l5.5-9.5c1.1-1.9,2-2.6,3.1-2.6
			C46.5,6.7,47.1,7.5,47.4,9.3z M45.2,10.2c0,0-0.1-1.1-0.4-1.1S44,10.2,44,10.2l-2.3,4.3h4L45.2,10.2z"/>
		<path class="st0" d="M62.2,10.3c0,0.3,0,0.7-0.1,1l-0.7,3.2c-0.6,2.8-3.2,4.6-6.3,4.6c-2.8,0-4.5-1.4-4.5-3.6c0-0.3,0-0.7,0.1-1
			l0.7-3.2c0.6-2.7,3.2-4.7,6.4-4.7C60.5,6.6,62.2,8.1,62.2,10.3z M54,11.3l-0.7,3.2c-0.1,0.3-0.1,0.5-0.1,0.7
			c0,1.2,0.8,1.9,2.3,1.9c1.8,0,3-1,3.3-2.6l0.7-3.2c0.1-0.3,0.1-0.6,0.1-0.8c0-1.3-0.9-2-2.3-2C55.7,8.6,54.4,9.5,54,11.3z"/>
		<path class="st1" d="M73.1,19.1c-2.5,0-4.6-1-4.6-2.9c0-0.2,0-0.4,0.1-0.6c0.1-0.6,0.5-1.2,0.8-1.6l2.7,0.8
			c-0.4,0.3-0.5,0.6-0.6,0.8c0,0.1,0,0.2,0,0.2c0,0.8,0.9,1.2,2.1,1.2c1.5,0,2.6-0.5,2.8-1.4c0-0.1,0-0.2,0-0.3
			c0-0.8-0.8-1.3-2.2-1.7c-1.3-0.4-4.2-0.8-4.2-3c0-0.2,0-0.4,0.1-0.6c0.3-1.6,2.5-3.5,5.6-3.5c2.9,0,4.2,1.6,4.2,3
			c0,0.2,0,0.3,0,0.5h-2.6c0-0.1,0-0.2,0-0.4c0-0.9-0.8-1.3-2-1.3c-1.3,0-2.4,0.7-2.6,1.5c0,0.1,0,0.1,0,0.2c0,0.7,1,0.9,2.3,1.3
			c1.7,0.6,4.1,1.1,4.1,3.3c0,0.2,0,0.5-0.1,0.8C78.5,17.8,76.2,19.1,73.1,19.1z"/>
		<path class="st1" d="M85.2,6.9l-1.1,4.9c2.3-2.2,4.3-3.8,5.2-4.9h3.1c-1.5,1.5-6.1,5.5-6.1,5.5s2.6,3.2,4.1,6.4h-3.1
			c-0.8-2.1-2.1-4.1-3.4-5.7l-1.2,5.7h-2.4l2.5-11.9H85.2z"/>
		<path class="st1" d="M95.8,6.9l1,4.6c0,0,0.1,0.8,0.4,0.8c0.2,0,0.7-0.8,0.7-0.8l3-4.6h2.7c0,0-3.7,5.4-4.2,6.1
			c-0.4,0.5-0.8,1-1.4,1.4L97,18.8h-2.4l0.9-4.4c-0.4-0.4-0.6-0.8-0.8-1.4c-0.2-0.7-1.6-6.1-1.6-6.1H95.8z"/>
		<path class="st1" d="M106.7,6.9l0.3,8.9c0,0.4,0,0.8,0.1,0.8c0.2,0,0.2-0.2,0.5-0.8l3.7-8.9h1.1h1.1l0,8.9v0.1v0.4
			c0,0.2,0,0.2,0.1,0.2c0.2,0,0.3-0.4,0.5-0.8l4-8.9h2.6l-5,10.5c-0.5,1.1-1.5,1.5-2.5,1.5c-0.7,0-1.6-0.4-1.7-1.5l0-6.4l-2.7,6.4
			c-0.5,1.1-1.6,1.5-2.3,1.5c-1,0-1.8-0.4-1.8-1.5l-0.5-10.5H106.7z"/>
		<path class="st1" d="M128.2,9.3l1.5,9.5H127l-0.3-2.4h-5.2l-1.3,2.4h-2.8l5.5-9.5c1.1-1.9,2-2.6,3.1-2.6
			C127.3,6.7,127.9,7.5,128.2,9.3z M126,10.2c0,0-0.1-1.1-0.4-1.1c-0.3,0-0.8,1.1-0.8,1.1l-2.3,4.3h4L126,10.2z"/>
		<path class="st1" d="M134,6.9l1,4.6c0,0,0.1,0.8,0.4,0.8c0.2,0,0.7-0.8,0.7-0.8l3-4.6h2.7c0,0-3.7,5.4-4.2,6.1
			c-0.4,0.5-0.8,1-1.4,1.4l-0.9,4.4h-2.4l0.9-4.4c-0.4-0.4-0.6-0.8-0.8-1.4c-0.2-0.7-1.6-6.1-1.6-6.1H134z"/>
	</g>
</g>
</svg>
