<?xml version="1.0" encoding="utf-8"?>
<!-- Generator: Adobe Illustrator 22.1.0, SVG Export Plug-In . SVG Version: 6.00 Build 0)  -->
<svg version="1.1" id="Layer_1" xmlns="http://www.w3.org/2000/svg" xmlns:xlink="http://www.w3.org/1999/xlink" x="0px" y="0px"
	 viewBox="0 0 26.3 25.7" style="enable-background:new 0 0 26.3 25.7;" xml:space="preserve">
<style type="text/css">
	.st0{fill:#FFFFFF;}
</style>
<g>
	<path class="st0" d="M23.7,25.7c-0.1,0-0.3,0-0.4-0.1c-0.6-0.1-1.3-0.2-1.9-0.3c-1-0.2-2-0.4-3-0.6c-1.4-0.3-2.8-0.7-4.2-1.2
		c-1.2-0.4-2.4-1-3.6-1.6c-0.8-0.4-1.5-0.9-2.2-1.5c-0.5-0.4-0.9-0.9-1.3-1.5c-0.3-0.4-0.5-0.9-0.5-1.4c0-0.1,0-0.2,0-0.3
		c-0.1,0-0.3-0.1-0.4-0.1c-1-0.2-2.1-0.5-3.1-0.9C2.5,16,2,15.7,1.5,15.3c-0.4-0.3-0.8-0.6-1.1-1c-0.2-0.3-0.4-0.6-0.5-1
		c-0.1-0.5,0-0.9,0.2-1.3c0.2-0.4,0.5-0.7,0.9-1c0.5-0.4,1.1-0.8,1.7-1c0.9-0.7,1.8-1,2.8-1.2c0.4-0.1,0.8-0.2,1.2-0.3
		c0,0,0,0,0-0.1C6.8,7.8,7,7.3,7.3,6.8c0.4-0.6,0.8-1.1,1.4-1.5c0.7-0.6,1.6-1.1,2.4-1.6C12.3,3,13.6,2.5,14.9,2s2.7-0.8,4.1-1.1
		c1-0.2,2-0.4,3-0.6c0.5-0.1,1.1-0.2,1.6-0.3h0.1h-0.1C22,0.5,20.5,1.2,19,1.9c-1.1,0.5-2.2,1.2-3.2,1.9c-0.7,0.5-1.4,1.1-1.9,1.8
		c-0.4,0.5-0.8,1.1-1,1.8c-0.4,1.1-0.3,2.1,0.2,3.1l0,0h0.1C15,9.6,16.9,9,18.9,8.4C20.5,8,22,7.6,23.6,7.3c0.8-0.2,1.7-0.3,2.5-0.5
		h0.1h-0.1c-1.6,0.6-3.3,1.2-4.9,1.9c-1.4,0.6-2.7,1.3-3.9,2.1c-0.9,0.6-1.8,1.2-2.5,1.9l-0.1,0.1l0.1,0.1c0.6,0.6,1.3,1.1,2,1.5
		c1.3,0.8,2.6,1.5,3.9,2.2c1.7,0.8,3.5,1.5,5.3,2.1c0.1,0,0.2,0.1,0.3,0.1c-0.2,0-0.5-0.1-0.7-0.1c-0.7-0.1-1.4-0.3-2.1-0.4
		c-1.4-0.3-2.8-0.6-4.2-1c-1.6-0.5-3.3-1-4.8-1.6c-0.5-0.2-0.9-0.4-1.4-0.6H13c0,0,0,0,0,0.1c-0.3,0.6-0.4,1.2-0.4,1.9
		c0,0.7,0.2,1.3,0.5,1.9s0.7,1.1,1.2,1.6c0.7,0.8,1.6,1.4,2.5,1.9c1.2,0.7,2.4,1.3,3.6,1.9C21.4,24.8,22.5,25.2,23.7,25.7
		C23.6,25.6,23.7,25.6,23.7,25.7L23.7,25.7z M9.1,12.8L9.1,12.8c-0.2-0.2-0.4-0.3-0.5-0.4c-0.5-0.5-1-1-1.3-1.6
		c-0.3-0.5-0.5-1-0.6-1.5c0-0.1,0-0.2,0-0.3l0,0c0,0,0,0-0.1,0c-0.5,0.3-1,0.6-1.4,1s-0.8,0.8-1,1.3c-0.4,0.8-0.5,1.6-0.2,2.4
		c0.2,0.5,0.5,1,0.8,1.4c0.5,0.6,1.1,1,1.8,1.4c0,0,0,0,0.1,0v-0.1c0-0.2,0-0.3,0.1-0.5c0.1-0.6,0.4-1.1,0.8-1.6
		c0.4-0.5,0.9-1,1.4-1.4C9,12.9,9.1,12.9,9.1,12.8z"/>
</g>
</svg>
